<?xml version="1.0" encoding="utf-8"?>
<!-- Generator: Adobe Illustrator 15.0.0, SVG Export Plug-In . SVG Version: 6.00 Build 0)  -->
<!DOCTYPE svg PUBLIC "-//W3C//DTD SVG 1.1//EN" "http://www.w3.org/Graphics/SVG/1.1/DTD/svg11.dtd">
<svg version="1.1" xmlns="http://www.w3.org/2000/svg" xmlns:xlink="http://www.w3.org/1999/xlink" x="0px" y="0px"
	 width="392.79px" height="292.334px" viewBox="0 0 392.79 292.334" enable-background="new 0 0 392.79 292.334"
	 xml:space="preserve">
<g id="Layer_1">
	<g>
		<g>
			<path opacity="0.4" fill="#F1F1F1" d="M128.969,292.334H392.79V2.473H270.81c-29.189,5.009-68.833,5.799-75.04,24.1
				c-13.418,39.558,24.894,61.472,0,85.109c-24.894,23.638-89.94,55.835-57.816,95.188c32.125,39.354,8.052,38.48,0,49.968
				C131.512,266.03,124.323,279.377,128.969,292.334"/>
			<path fill="#74818E" d="M336.538,286.161c-2.398,0-4.412-1.876-4.563-4.313c-0.156-2.531,1.754-4.711,4.27-4.876
				c0.131-0.01,5.588-0.436,12.797-3.396c9.621-3.951,17.68-10.324,23.952-18.942c1.492-2.049,4.355-2.496,6.395-0.994
				c2.04,1.499,2.483,4.377,0.991,6.427c-17.612,24.197-42.502,26.021-43.553,26.087
				C336.729,286.158,336.633,286.161,336.538,286.161"/>
			<path fill="#74818E" d="M158.988,203.247c0-2.41,1.866-4.435,4.292-4.585c2.517-0.159,4.686,1.761,4.85,4.29
				c0.01,0.131,0.433,5.616,3.378,12.863c3.932,9.671,10.271,17.771,18.844,24.076c2.04,1.5,2.483,4.379,0.991,6.429
				s-4.354,2.496-6.395,0.996c-24.071-17.704-25.886-42.723-25.952-43.779C158.991,203.439,158.988,203.344,158.988,203.247"/>
			<path fill="#74818E" d="M295.25,21.856c1.781,1.612,2.029,4.361,0.518,6.274c-1.568,1.986-4.438,2.321-6.418,0.752
				c-0.104-0.082-4.441-3.436-11.77-6.086c-9.78-3.536-20.011-4.223-30.408-2.038c-2.474,0.518-4.898-1.076-5.415-3.562
				c-0.517-2.487,1.069-4.924,3.543-5.443c29.197-6.131,48.904,9.258,49.729,9.915C295.105,21.729,295.179,21.792,295.25,21.856"/>
			<polygon fill="#FDA080" points="182.352,199.407 208.711,185.509 218.638,211.765 192.521,221.028 			"/>
			<path fill="#F4907C" d="M190.836,198.261c0,0,8.294-1.719,11.821,0c3.527,1.718,6.542,12.259,6.542,12.259l17.386,1.245
				l-15.729-29.705l-16.302,7.762L190.836,198.261z"/>
			<path fill="#35294A" d="M196.593,99.912c-13.361,5.898-19.437,21.569-13.569,34.999l44.744,102.422
				c5.868,13.431,21.457,19.536,34.818,13.64l130.204-57.476V13.305L196.593,99.912z"/>
			<g opacity="0.4">
				<g>
					<defs>
						<rect id="SVGID_1_" x="363.233" y="171.846" width="17.781" height="17.874"/>
					</defs>
					<clipPath id="SVGID_2_">
						<use xlink:href="#SVGID_1_"  overflow="visible"/>
					</clipPath>
					<path clip-path="url(#SVGID_2_)" fill="#808080" d="M381.016,180.783c0,4.936-3.981,8.937-8.892,8.937
						s-8.891-4.001-8.891-8.937c0-4.937,3.98-8.938,8.891-8.938S381.016,175.847,381.016,180.783"/>
				</g>
			</g>
			<g opacity="0.4">
				<g>
					<defs>
						<rect id="SVGID_3_" x="328.162" y="54.101" width="17.782" height="17.875"/>
					</defs>
					<clipPath id="SVGID_4_">
						<use xlink:href="#SVGID_3_"  overflow="visible"/>
					</clipPath>
					<path clip-path="url(#SVGID_4_)" fill="#808080" d="M345.944,63.039c0,4.937-3.98,8.938-8.892,8.938
						c-4.91,0-8.891-4.001-8.891-8.938c0-4.936,3.98-8.938,8.891-8.938C341.964,54.101,345.944,58.103,345.944,63.039"/>
				</g>
			</g>
			<g opacity="0.4">
				<g>
					<defs>
						<rect id="SVGID_5_" x="202.025" y="121.241" width="17.781" height="17.875"/>
					</defs>
					<clipPath id="SVGID_6_">
						<use xlink:href="#SVGID_5_"  overflow="visible"/>
					</clipPath>
					<path clip-path="url(#SVGID_6_)" fill="#808080" d="M219.807,130.178c0,4.936-3.98,8.937-8.891,8.937s-8.892-4.001-8.892-8.937
						c0-4.937,3.981-8.938,8.892-8.938S219.807,125.241,219.807,130.178"/>
				</g>
			</g>
			<g opacity="0.4">
				<g>
					<defs>
						<rect id="SVGID_7_" x="195.769" y="161.154" width="77.298" height="79.317"/>
					</defs>
					<clipPath id="SVGID_8_">
						<use xlink:href="#SVGID_7_"  overflow="visible"/>
					</clipPath>
					<path opacity="0" clip-path="url(#SVGID_8_)" fill="#808080" d="M272.247,187.042l-8.483,8.72l-35.593,31.048l-5.564-1.291
						l5.162,11.814c0.479,1.098,1.03,2.142,1.633,3.139c4.221-1.146,9.486-2.841,11.769-4.654
						c4.1-3.259,22.784-29.609,22.784-29.609s5.529-3.45,6.269-5.314s2.12-10.018,2.692-11.36
						C273.486,188.191,272.247,187.042,272.247,187.042"/>
					<path opacity="0" clip-path="url(#SVGID_8_)" fill="#808080" d="M240.026,182.253c1.906-0.188,3.328-2.876,3.328-2.876
						l2.964-1.342l0.381-2.971l-4.957-2.104l-27.81-8.021l-17.281-3.784l-0.882,2.933l5.052,11.562l29.005,5.755
						C229.826,181.404,238.119,182.442,240.026,182.253"/>
				</g>
			</g>
			<g opacity="0.4">
				<g>
					<defs>
						<rect id="SVGID_9_" x="270.854" y="150.259" width="82.379" height="89.104"/>
					</defs>
					<clipPath id="SVGID_10_">
						<use xlink:href="#SVGID_9_"  overflow="visible"/>
					</clipPath>
					<path opacity="0" clip-path="url(#SVGID_10_)" fill="#808080" d="M325.433,160.26l1.937,18.079l10.242,16.665l15.62,15.956
						l-64.619,28.403l-3.813-31.304l-3.686-16.675l-10.26-17.662l53.641-23.463c0,0,0.386,0.625,0.407,1.167
						S325.433,160.26,325.433,160.26"/>
				</g>
			</g>
			<path fill="#E5E5E5" d="M324.664,161.305l-45.923,19.942c-0.924,0.401-1.349,1.479-0.95,2.407l13.088,30.455
				c0.399,0.929,1.473,1.356,2.396,0.955l45.923-19.941c0.924-0.401,1.35-1.479,0.95-2.408l-13.087-30.455
				C326.66,161.331,325.588,160.904,324.664,161.305"/>
			<path fill="#666666" d="M320.438,164.655l-36.373,15.794c-0.748,0.325-1.093,1.2-0.77,1.952l7.865,18.303
				c0.323,0.752,1.192,1.099,1.941,0.773l36.373-15.795c0.749-0.325,1.094-1.198,0.771-1.951l-7.865-18.302
				C322.056,164.676,321.187,164.33,320.438,164.655"/>
			<path fill="#CBCBCB" d="M314.991,193.695l-6.158,2.675c-0.776,0.336-1.135,1.243-0.799,2.023l2.2,5.123
				c0.336,0.779,1.236,1.14,2.015,0.802l6.158-2.674c0.777-0.338,1.135-1.244,0.799-2.025l-2.2-5.12
				C316.67,193.718,315.769,193.358,314.991,193.695"/>
			<path fill="#FFFFFF" d="M322.991,149.955l-25.662,11.144l-25.662,11.144c-0.856,0.373-1.087,1.485-0.448,2.169l6.238,6.682
				c0.284,0.303,0.727,0.396,1.106,0.23l23.14-10.047l23.139-10.049c0.379-0.164,0.616-0.552,0.591-0.968l-0.562-9.146
				C324.812,150.179,323.848,149.583,322.991,149.955"/>
			<path fill="#808080" d="M325.433,160.26l-0.562-9.102c-0.352-0.328-0.917-0.442-1.453-0.208l-25.662,11.143l-25.662,11.144
				c-0.536,0.233-0.841,0.725-0.846,1.207l6.209,6.65c0.284,0.303,0.727,0.396,1.106,0.23l23.14-10.047l23.139-10.049
				C325.222,161.063,325.458,160.676,325.433,160.26"/>
			<path fill="#A5B4C2" d="M323.155,160.839l-0.173-7.508c-0.305-0.258-0.806-0.331-1.295-0.119l-23.384,10.154l-23.384,10.154
				c-0.489,0.212-0.78,0.63-0.801,1.029l5.319,5.272c0.243,0.24,0.636,0.302,0.982,0.15l21.085-9.156l21.084-9.154
				C322.937,161.511,323.163,161.182,323.155,160.839"/>
			<path fill="#997E6B" d="M300.41,215.915l-2.083-10.052c0,0,1.962-6.383,1.813-7.599c-0.149-1.218-2.297-8.841-2.297-8.841
				s-1.444-0.154-1.753,0.621s0,4.507,0,4.507s-1.08-1.173-1.389-1.871c-0.233-0.528-0.732-5.766-0.961-8.28
				c-0.069-0.757-0.7-1.334-1.456-1.334c-0.735,0-1.355,0.549-1.449,1.282l-0.377,2.952l-2.468,0.495l-1.157,2.715l-2.597,5.582
				l1.635,6.302l3.662,4.863l0.771,8.657H300.41z"/>
			<path fill="#997E6B" d="M335.396,200.894l-6.885-7.586c0,0-6.296-2.14-7.188-2.974c-0.894-0.834-5.782-7.049-5.782-7.049
				s0.721-1.268,1.527-1.064c0.806,0.203,3.633,2.64,3.633,2.64s-0.312-1.567-0.694-2.227c-0.289-0.5-4.22-3.975-6.113-5.634
				c-0.57-0.5-0.666-1.352-0.224-1.967c0.431-0.6,1.237-0.784,1.884-0.431l2.6,1.423l1.846-1.721l2.866,0.646l6.022,1.155
				l4.123,5.022l1.777,5.833l6.527,5.699L335.396,200.894z"/>
			<polygon fill="#FFFFFF" points="272.1,192.17 229.832,207.303 219.043,176.852 261.311,161.719 			"/>
			<polygon fill="#C4CCD7" points="270.223,190.299 260.232,162.104 219.043,176.852 229.032,205.046 			"/>
			<polygon fill="#FFFFFF" points="269.883,189.912 227.615,205.045 216.826,174.593 259.094,159.461 			"/>
			<path fill="#C19F87" d="M224.318,164.938l5.283,2.235c0,0,6.039-1.277,8.034-0.511s7.961,4.588,8.59,5.04
				c0.63,0.452,1.6,2.559,1.6,3.007c0,0.446-1.278,2.362-2.661,2.49c-1.382,0.128-7.744,0.319-7.744,0.319s1.617,1.405,1.887,1.788
				s0.324,1.469,0.108,1.661c-0.216,0.191-5.122-1.916-6.524-2.363c-1.401-0.447-3.504-2.3-3.882-2.683
				c-0.377-0.383-1.671-1.853-1.671-1.853l-5.823-2.367L224.318,164.938z"/>
			<path fill="#C19F87" d="M257.632,208.06l3.678-4.42c0,0,5.95-1.646,7.374-3.246c1.424-1.599,0.97-4.131,1.323-4.823
				c0.354-0.691-0.166-5.163,0.139-5.489c1.098-1.175,2.644-2.322,3.55-3.326c1.603-1.773,0.457-2.573-0.352-2.244
				c-1.287,0.523-9.8,6.332-9.8,6.332s0.797-1.993,0.862-2.459c0.064-0.464-0.382-1.455-0.661-1.525s-3.68,4.062-4.722,5.104
				c-1.043,1.044-2.067,3.658-2.229,4.172c-0.161,0.515-0.643,2.417-0.643,2.417l-4.095,4.787L257.632,208.06z"/>
			<path fill="#647889" d="M288.715,99.114l-33.464,11.199c-1.997,0.668-3.077,2.836-2.412,4.845l6.679,20.165
				c0.665,2.009,2.822,3.094,4.82,2.426l33.464-11.199c1.997-0.668,3.077-2.837,2.412-4.845l-6.679-20.166
				C292.87,99.531,290.712,98.445,288.715,99.114"/>
			<path fill="#F8FBFC" d="M298.109,127.48l-33.464,11.199c-2.504,0.837-5.22-0.529-6.053-3.045l-6.679-20.167
				c-0.834-2.518,0.525-5.247,3.029-6.085l33.464-11.198c2.504-0.838,5.22,0.527,6.053,3.045l6.679,20.167
				C301.973,123.913,300.613,126.642,298.109,127.48 M257.049,110.744c-1.484,0.497-2.289,2.115-1.795,3.605l6.679,20.167
				c0.494,1.491,2.103,2.301,3.587,1.804l31.975-10.7c1.483-0.496,2.289-2.114,1.795-3.606l-6.679-20.166
				c-0.494-1.491-2.104-2.301-3.587-1.805L257.049,110.744z"/>
			<path fill="#D4D2D1" d="M258.278,124.538c0.207,0.626-0.13,1.302-0.752,1.51c-0.623,0.208-1.295-0.129-1.503-0.756
				c-0.207-0.625,0.13-1.302,0.752-1.51C257.398,123.574,258.071,123.912,258.278,124.538"/>
			<g opacity="0.4">
				<g>
					<defs>
						<rect id="SVGID_11_" x="227.5" y="56.391" width="74.204" height="75.455"/>
					</defs>
					<clipPath id="SVGID_12_">
						<use xlink:href="#SVGID_11_"  overflow="visible"/>
					</clipPath>
					<polygon opacity="0" clip-path="url(#SVGID_12_)" fill="#808080" points="227.5,86.269 259.062,131.846 273.296,128.236 
						269.283,118.652 261.062,116.323 251.401,98.842 300.941,80.677 301.704,72.774 295.184,56.391 					"/>
				</g>
			</g>
			<path fill="#FDF5EA" d="M271.535,123.137l-6.539-3.018c-0.329-0.151-0.719-0.054-0.938,0.238l-0.065,0.087
				c-0.299,0.398-0.149,0.973,0.305,1.175l6.604,2.93c0.37,0.164,0.803,0.013,0.992-0.346
				C272.103,123.81,271.938,123.323,271.535,123.137"/>
			<path fill="#FAD1B1" d="M257.472,80.676c0,0-1.923,0.812-3.727,1.044c-1.803,0.233-4.091-0.767-5.616-0.521
				c-1.525,0.244-5.338,2.927-5.338,2.927l-1.462,3.578l-0.89,5.876l6.546,2.684c0,0,1.684,0.758,4.416-0.711
				c2.733-1.47,7.661-5.741,7.661-5.741l3.302-1.725L257.472,80.676z"/>
			<path fill="#FAD1B1" d="M262.052,113.88l4.46,1.561c0,0,2.34,2.516,2.771,3.211c0.432,0.693,0,2.776,0,2.776
				s1.554,1.562,1.468,3.037c-0.087,1.475-2.42,3.47-5.354,3.556c-2.933,0.088-6.04,0.434-6.73,0c-0.69-0.433-3.97-7.07-3.97-7.07
				l-4.661-6.464l9.062-4.425L262.052,113.88z"/>
		</g>
		<g>
			<path fill="#80C1D8" d="M167.564,207.117c0,0-1.454-15.35,2.014-20.14c3.467-4.792,22.207-37.903,23.792-39.224
				s34.801,17.085,34.801,17.085s-3.729,8.787-4.117,8.959c-0.389,0.171-25.017-8.83-25.017-8.83l-4.292,13.834l6.374-2.469
				l5.717,13.086c0,0-6.776,4.285-18.288,9.988C177.036,205.109,167.564,207.117,167.564,207.117"/>
			<path fill="#80C1D8" d="M180.376,232.201c-0.153,0.396,16.528,12.73,22.971,10.508c6.441-2.223,31.51-8.477,34.925-10.915
				c3.413-2.438,22.214-24.874,22.214-24.874l-5.969-7.302l-19.816,18.03l-13.671,4.258l-6.462-14.789
				C214.567,207.117,186.84,215.53,180.376,232.201"/>
			<path fill="#F39475" d="M287.427,212.684l14.788-1.974l5.577,20.308l37.807-16.688l-13.113-13.048l8.989-11.007l29.058,23.981
				c0,0,8.516,25.258,8.292,28.048c-0.223,2.79-10.31,24.009-25.608,31.176c-15.3,7.168-36.03-2.104-38.784-2.751
				c-2.754-0.647-19.097-21.503-19.4-22.197C294.728,247.836,287.427,212.684,287.427,212.684"/>
			<path fill="#E74A5F" d="M302.588,70.862c-1.878-10.076-2.737-32.677-4.611-35.886c-2.451-4.197-8.111-10.081-17.055-13.585
				c0,0-38.207-3.318-46.961,2.1c-8.754,5.416-11.942,52.982-11.923,55.147c0.019,2.166,29.431,39.793,29.431,39.793l9.333-7.354
				l-18.877-31.176l41.95-18.519l0.752,5.257l-29.289,13.584l5.808,10.443l37.508-13.059
				C301.454,76.659,303.132,73.782,302.588,70.862"/>
			<polygon fill="#C9364F" points="255.955,114.897 252.419,115.652 222.271,79.251 251.469,118.431 			"/>
			<path fill="#C9364F" d="M302.629,72.774c-0.074,0.104-1.841,2.558-4.547,3.59c-2.766,1.054-35.182,11.02-35.182,11.02
				l-3.838-0.462l2.083,3.747l37.508-13.058C300.834,76.87,302.328,74.96,302.629,72.774"/>
			<path fill="#C9364F" d="M241.925,79.901l6.014-44.646c0,0,17.286-1.789,22.116,0c4.83,1.788,12.049,5.032,12.049,5.032
				l1.771,21.097L241.925,79.901z"/>
			<path fill="#C9364F" d="M236.753,26.695c0,0,9.137,11.248,9.335,22.297c0.198,11.049,3.757,6.45,3.757,6.45l-1.906-20.188
				C247.938,35.255,243.235,28.739,236.753,26.695"/>
			<path fill="#C9364F" d="M282.494,44.944c0,0-2.017-11.861,3.703-17.611c0,0-7.245,3.194-9.405,11.498
				C274.631,47.138,282.494,44.944,282.494,44.944"/>
			<path fill="#FAD1B1" d="M274.446,36.564c0.301-0.11-0.232,8.092-0.232,8.092l-2.676,4.189c0,0-6.226,4.47-7.392,5.015
				c-1.167,0.544-7.956,0.646-7.956,0.646s-2.032,0.978-2.992,0.53c-0.96-0.446-1.974-3.847-1.974-3.847s-3.764-2.042-3.633-9.869
				c0.133-7.825,10.034-11.248,10.034-11.248L274.446,36.564z"/>
			<path fill="#FAD1B1" d="M250.222,22.023c0,0-2.309-0.95-3.625,0.822c-1.316,1.772,0.911,5.068,0.911,5.068L250.222,22.023z"/>
			<path fill="#FAD1B1" d="M280.929,36.947c0,0,1.713,0.484,1.729,1.935c0.02,1.452-3.307,4.995-5.616,4.73
				C274.732,43.351,280.929,36.947,280.929,36.947"/>
			<path fill="#393F4B" d="M246.499,38.866c0,0-1.3-14.16,3.299-20.89c4.598-6.729,9.633-7.898,9.633-7.898
				s4.773-3.133,10.784-1.004c6.012,2.13,11.247,7.747,13.18,13.668c1.935,5.921-0.852,14.497-4.106,18.672
				c-3.256,4.174-7.75,7.432-7.75,7.432s1.858-5.49-0.313-5.831c0,0-8.724,6.648-14.548,6.28c-5.824-0.369-6.94-1.558-6.94-1.558
				s7.114-1.708,10.082-4.175c0,0-8.307,2.492-12.095,2.401l2.801-3.55l-1.932,0.942C248.593,43.354,246.644,41.613,246.499,38.866"
				/>
			<path fill="#11114E" d="M200.069,217.132c0,0,0.776,3.158-0.622,5.38c-1.398,2.221-4.067,2.669-5.847,5.161
				c-1.779,2.491-5.263,7.388-10.162,7.494c-4.899,0.107-8.586-5.067-11.445-6.153c-2.861-1.086-10.169,0.959-12.457-3.642
				c-2.288-4.6,3.114-12.329-0.445-16.29s-3.04-8.713-1.017-10.987c3.29-3.7,7.627-4.058,12.647-1.182
				c5.021,2.874,7.881,0.733,10.169-0.033c2.287-0.767,6.164-1.051,7.626-0.397s2.452,3.233,2.452,3.233L200.069,217.132z"/>
			<path fill="#63ADC1" d="M201.119,176.333l-6.374,2.469l-3.909,9.965c0,0,6.196-0.861,7.627,0c0.666,0.403,1.893,2.107,3.01,3.812
				c3.475-1.966,5.363-3.159,5.363-3.159L201.119,176.333z"/>
			<path fill="#63ADC1" d="M214.567,207.117c0,0-1.706,0.517-4.37,1.55c1.155,2.675,2.854,7.196,2.47,9.901
				c-0.572,4.024-5.831,7.092-5.831,7.092l14.193-3.754L214.567,207.117z"/>
			<path fill="#997E6B" d="M325.829,248.066c0,0-2.531-6.91,0.051-10.971c3.009-4.733,11.241-7.827,16.463-5.807
				c7.651,2.961,7.115,5.451,7.115,5.451L325.829,248.066z"/>
			<path fill="#31124E" d="M353.178,237.38c0,0-5.529-5.999-13.753-4.678c-8.224,1.32-10.052,3.059-10.052,3.059l2.138-0.06
				l-3.818,2.936c0,0-4.521,7.433-4.4,12.713c0.12,5.281,2.607,8.66,2.607,8.66s0.97,5.17,3.4,7.386
				c2.431,2.215,8.283,4.569,12.7,4.111c4.418-0.458,8.266-2.811,8.266-2.811s3.744-0.253,6.552-3.618
				c2.807-3.366,2.596-6.994,2.596-6.994s2.673-3.325,2.815-5.289c0.144-1.964-1.351-6.925-1.351-6.925
				S358.998,237.678,353.178,237.38"/>
			<path fill="#E28166" d="M307.792,231.018l2.302,9.496l6.291,7.553c0,0,1.716-10.584,9.914-17.405
				c8.199-6.822,22.498-5.098,24.596-5.001c2.097,0.095,10.104,9.509,10.104,9.509l-4.385-11.741l-11.016-9.099L307.792,231.018z"/>
			<path fill="#E28166" d="M376.284,248.531c-0.001,0.001-15.486,20.022-29.775,23.987c-12.521,3.475-27.729-0.515-31.3-1.555
				c4.696,1.566,23.719,9.21,38.007,2.516C364.105,268.378,372.354,256.158,376.284,248.531"/>
			<path fill="#FDF5EA" d="M267.971,121.439l-7.271-3.355c-0.366-0.168-0.8-0.058-1.042,0.264l-0.073,0.098
				c-0.332,0.443-0.167,1.083,0.339,1.307l7.345,3.258c0.411,0.183,0.893,0.015,1.104-0.384
				C268.602,122.189,268.419,121.646,267.971,121.439"/>
			<rect x="318.356" y="112.171" fill="#FFFFFF" width="44.867" height="32.325"/>
			<rect x="318.355" y="112.171" fill="#C4CCD7" width="43.725" height="29.929"/>
			<rect x="317.021" y="109.296" fill="#FFFFFF" width="44.867" height="32.325"/>
			<polygon fill="#FFFFFF" points="371.12,107.973 326.776,114.849 321.874,82.902 366.218,76.026 			"/>
			<polygon fill="#C4CCD7" points="369.626,105.781 365.087,76.201 321.874,82.903 326.413,112.481 			"/>
			<polygon fill="#FFFFFF" points="369.365,105.336 325.021,112.212 320.118,80.266 364.462,73.39 			"/>
			<path fill="#F16A44" d="M200.62,133.934c0.392,0.634,1.22,0.828,1.851,0.435l4.646-2.901l-1.418-2.294l-4.646,2.9
				C200.422,132.467,200.229,133.3,200.62,133.934"/>
			<path fill="#F16A44" d="M219.688,127.205c0,4.591-3.703,8.313-8.271,8.313s-8.27-3.722-8.27-8.313c0-4.59,3.702-8.313,8.27-8.313
				S219.688,122.614,219.688,127.205"/>
			<path fill="#F8FBFC" d="M203.793,125.831c0.096-0.781,0.333-1.545,0.666-2.265c0.343-0.716,0.796-1.384,1.347-1.965
				c1.104-1.158,2.577-1.958,4.154-2.261c0.198-0.031,0.397-0.054,0.596-0.082c0.198-0.033,0.4-0.024,0.6-0.037
				c0.1-0.003,0.2-0.011,0.3-0.009l0.301,0.011c0.2,0.002,0.398,0.029,0.598,0.05c0.793,0.101,1.573,0.325,2.293,0.671
				c0.719,0.343,1.389,0.792,1.961,1.342c0.567,0.553,1.063,1.181,1.432,1.874c-0.888-1.292-2.12-2.315-3.529-2.911
				c-1.403-0.611-2.979-0.756-4.473-0.491c-1.493,0.281-2.893,1.016-3.997,2.076C204.946,122.91,204.157,124.302,203.793,125.831"/>
			<path fill="#93603D" d="M218.102,127.205c0,3.71-2.992,6.718-6.684,6.718c-3.69,0-6.683-3.007-6.683-6.718
				c0-3.71,2.992-6.718,6.683-6.718C215.109,120.487,218.102,123.495,218.102,127.205"/>
			<path fill="#A4704C" d="M205.011,129.112c0.817,2.781,3.376,4.811,6.407,4.811c3.385,0,6.181-2.53,6.621-5.812
				c-0.818-2.781-3.377-4.81-6.408-4.81C208.246,123.301,205.451,125.831,205.011,129.112"/>
			<g opacity="0.5">
				<g>
					<defs>
						<rect id="SVGID_13_" x="205.905" y="122.691" width="11.026" height="10.057"/>
					</defs>
					<clipPath id="SVGID_14_">
						<use xlink:href="#SVGID_13_"  overflow="visible"/>
					</clipPath>
					<path clip-path="url(#SVGID_14_)" fill="#F8FBFC" d="M216.077,124.239c-0.031-0.05-0.098-0.064-0.147-0.034
						c-0.049,0.033-0.063,0.098-0.032,0.148c0.538,0.852,0.822,1.837,0.822,2.851c0,2.938-2.379,5.329-5.302,5.329
						c-0.282,0-0.564-0.022-0.841-0.066c-0.058-0.009-0.113,0.03-0.122,0.088c-0.01,0.059,0.03,0.114,0.088,0.123
						c0.288,0.045,0.582,0.069,0.875,0.069c3.04,0,5.513-2.486,5.513-5.542C216.931,126.15,216.637,125.125,216.077,124.239"/>
					<path clip-path="url(#SVGID_14_)" fill="#F8FBFC" d="M208.314,122.884c0.048-0.034,0.059-0.102,0.023-0.148
						c-0.034-0.048-0.101-0.06-0.148-0.024c-1.431,1.04-2.285,2.72-2.285,4.493c0,1.374,0.504,2.691,1.417,3.709
						c0.021,0.023,0.05,0.035,0.079,0.035c0.025,0,0.051-0.009,0.071-0.027c0.044-0.04,0.047-0.107,0.008-0.151
						c-0.879-0.98-1.362-2.247-1.362-3.567C206.117,125.5,206.938,123.886,208.314,122.884"/>
					<path clip-path="url(#SVGID_14_)" fill="#F8FBFC" d="M211.418,123.764c0.171,0,0.342,0.013,0.509,0.038
						c0.059,0.007,0.112-0.032,0.121-0.091c0.009-0.058-0.031-0.112-0.09-0.121c-0.177-0.026-0.358-0.041-0.54-0.041
						c-2.005,0-3.636,1.64-3.636,3.655c0,0.177,0.013,0.355,0.038,0.529c0.008,0.053,0.054,0.092,0.105,0.092
						c0.005,0,0.01,0,0.015-0.001c0.059-0.008,0.099-0.062,0.091-0.122c-0.024-0.164-0.036-0.331-0.036-0.498
						C207.995,125.308,209.531,123.764,211.418,123.764"/>
					<path clip-path="url(#SVGID_14_)" fill="#F8FBFC" d="M214.077,129.697c0.041-0.043,0.038-0.111-0.005-0.151
						s-0.11-0.038-0.15,0.005c-0.646,0.695-1.558,1.095-2.504,1.095c-0.956,0-1.875-0.406-2.521-1.115
						c-0.04-0.043-0.107-0.045-0.15-0.006c-0.043,0.04-0.046,0.107-0.007,0.15c0.688,0.753,1.664,1.185,2.679,1.185
						C212.423,130.86,213.392,130.435,214.077,129.697"/>
					<path clip-path="url(#SVGID_14_)" fill="#F8FBFC" d="M212.968,124.136c1.156,0.591,1.874,1.766,1.874,3.068
						c0,0.089-0.004,0.176-0.011,0.263c-0.004,0.06,0.04,0.11,0.099,0.116c0.003,0,0.005,0,0.008,0c0.055,0,0.102-0.042,0.105-0.099
						c0.008-0.093,0.011-0.186,0.011-0.28c0-1.383-0.762-2.631-1.989-3.258c-0.052-0.027-0.116-0.006-0.143,0.046
						C212.896,124.045,212.916,124.109,212.968,124.136"/>
					<path clip-path="url(#SVGID_14_)" fill="#F8FBFC" d="M211.418,130.041c0.998,0,1.901-0.513,2.417-1.373
						c0.031-0.051,0.015-0.116-0.036-0.147c-0.05-0.03-0.115-0.014-0.146,0.037c-0.478,0.795-1.312,1.27-2.235,1.27
						c-0.059,0-0.106,0.048-0.106,0.107C211.312,129.993,211.359,130.041,211.418,130.041"/>
					<path clip-path="url(#SVGID_14_)" fill="#F8FBFC" d="M213.263,125.351c0.042,0.042,0.109,0.042,0.15,0
						c0.042-0.042,0.042-0.109,0-0.151c-0.533-0.536-1.241-0.831-1.995-0.831c-0.999,0-1.933,0.539-2.438,1.407
						c-0.029,0.052-0.013,0.117,0.038,0.146c0.018,0.01,0.035,0.015,0.054,0.015c0.036,0,0.072-0.019,0.092-0.053
						c0.467-0.803,1.33-1.302,2.254-1.302C212.115,124.582,212.771,124.856,213.263,125.351"/>
				</g>
			</g>
			<path fill="#F16A44" d="M345.64,51.419c-0.525-0.528-1.376-0.528-1.901,0l-3.868,3.888l1.901,1.911l3.868-3.888
				C346.164,52.803,346.164,51.947,345.64,51.419"/>
			<path fill="#F16A44" d="M344.692,60.747c0,4.59-3.703,8.313-8.27,8.313c-4.567,0-8.271-3.723-8.271-8.313
				c0-4.591,3.703-8.313,8.271-8.313C340.989,52.434,344.692,56.156,344.692,60.747"/>
			<path fill="#F8FBFC" d="M328.797,59.373c0.096-0.781,0.333-1.545,0.667-2.265c0.343-0.715,0.795-1.384,1.346-1.965
				c1.104-1.158,2.578-1.958,4.154-2.262c0.198-0.03,0.397-0.053,0.596-0.082c0.198-0.032,0.4-0.023,0.6-0.036
				c0.101-0.003,0.2-0.011,0.301-0.009l0.3,0.011c0.2,0.002,0.399,0.029,0.598,0.05c0.793,0.101,1.573,0.324,2.293,0.671
				c0.719,0.342,1.389,0.792,1.962,1.341c0.567,0.554,1.062,1.181,1.431,1.875c-0.888-1.293-2.12-2.315-3.529-2.911
				c-1.403-0.611-2.979-0.756-4.472-0.491c-1.494,0.28-2.892,1.016-3.998,2.076C329.95,56.452,329.161,57.844,328.797,59.373"/>
			<path fill="#93603D" d="M343.105,60.747c0,3.71-2.992,6.718-6.683,6.718c-3.691,0-6.684-3.008-6.684-6.718
				c0-3.71,2.992-6.718,6.684-6.718C340.113,54.029,343.105,57.037,343.105,60.747"/>
			<path fill="#A4704C" d="M330.015,62.654c0.817,2.78,3.376,4.81,6.408,4.81c3.385,0,6.18-2.529,6.62-5.812
				c-0.817-2.78-3.376-4.81-6.408-4.81C333.25,56.843,330.454,59.373,330.015,62.654"/>
			<g opacity="0.5">
				<g>
					<defs>
						<rect id="SVGID_15_" x="330.909" y="56.233" width="11.026" height="10.056"/>
					</defs>
					<clipPath id="SVGID_16_">
						<use xlink:href="#SVGID_15_"  overflow="visible"/>
					</clipPath>
					<path clip-path="url(#SVGID_16_)" fill="#F8FBFC" d="M341.081,57.781c-0.031-0.049-0.098-0.064-0.146-0.033
						c-0.051,0.032-0.065,0.098-0.034,0.148c0.538,0.852,0.822,1.837,0.822,2.852c0,2.938-2.378,5.327-5.301,5.327
						c-0.282,0-0.565-0.022-0.842-0.066c-0.058-0.01-0.112,0.031-0.122,0.088c-0.009,0.06,0.03,0.114,0.089,0.123
						c0.287,0.046,0.581,0.069,0.875,0.069c3.04,0,5.513-2.486,5.513-5.542C341.936,59.693,341.641,58.667,341.081,57.781"/>
					<path clip-path="url(#SVGID_16_)" fill="#F8FBFC" d="M333.318,56.427c0.048-0.034,0.059-0.102,0.024-0.149
						c-0.035-0.048-0.102-0.059-0.148-0.024c-1.432,1.041-2.285,2.72-2.285,4.493c0,1.373,0.503,2.69,1.417,3.709
						c0.021,0.023,0.05,0.035,0.078,0.035c0.025,0,0.052-0.009,0.071-0.027c0.044-0.039,0.047-0.107,0.008-0.15
						c-0.878-0.98-1.362-2.247-1.362-3.567C331.121,59.042,331.942,57.428,333.318,56.427"/>
					<path clip-path="url(#SVGID_16_)" fill="#F8FBFC" d="M336.423,57.306c0.17,0,0.342,0.012,0.508,0.038
						c0.06,0.008,0.112-0.032,0.121-0.089c0.009-0.059-0.031-0.113-0.089-0.122c-0.178-0.026-0.359-0.04-0.54-0.04
						c-2.005,0-3.636,1.639-3.636,3.655c0,0.177,0.013,0.354,0.037,0.529c0.008,0.053,0.054,0.091,0.105,0.091
						c0.005,0,0.01,0,0.016-0.001c0.058-0.009,0.098-0.062,0.09-0.122c-0.023-0.164-0.036-0.332-0.036-0.498
						C332.999,58.85,334.535,57.306,336.423,57.306"/>
					<path clip-path="url(#SVGID_16_)" fill="#F8FBFC" d="M339.082,63.239c0.04-0.043,0.037-0.11-0.006-0.15
						c-0.043-0.041-0.109-0.039-0.15,0.005c-0.645,0.695-1.558,1.094-2.503,1.094c-0.956,0-1.876-0.406-2.522-1.115
						c-0.04-0.043-0.107-0.046-0.15-0.006c-0.043,0.041-0.046,0.108-0.006,0.151c0.687,0.753,1.663,1.184,2.679,1.184
						C337.427,64.401,338.396,63.978,339.082,63.239"/>
					<path clip-path="url(#SVGID_16_)" fill="#F8FBFC" d="M337.973,57.678c1.155,0.59,1.873,1.766,1.873,3.069
						c0,0.088-0.004,0.176-0.01,0.262c-0.005,0.059,0.039,0.11,0.098,0.116h0.008c0.056,0,0.102-0.043,0.106-0.099
						c0.007-0.092,0.01-0.186,0.01-0.279c0-1.383-0.762-2.632-1.989-3.26c-0.052-0.026-0.117-0.005-0.143,0.047
						C337.899,57.587,337.92,57.651,337.973,57.678"/>
					<path clip-path="url(#SVGID_16_)" fill="#F8FBFC" d="M336.423,63.583c0.997,0,1.9-0.514,2.417-1.374
						c0.03-0.05,0.014-0.115-0.036-0.146c-0.051-0.03-0.116-0.014-0.146,0.036c-0.477,0.795-1.312,1.27-2.234,1.27
						c-0.06,0-0.106,0.047-0.106,0.107C336.316,63.535,336.363,63.583,336.423,63.583"/>
					<path clip-path="url(#SVGID_16_)" fill="#F8FBFC" d="M338.267,58.893c0.042,0.042,0.109,0.042,0.15,0
						c0.042-0.042,0.042-0.109,0-0.15c-0.532-0.536-1.241-0.832-1.994-0.832c-1,0-1.934,0.54-2.438,1.408
						c-0.029,0.051-0.012,0.117,0.039,0.146c0.017,0.01,0.035,0.015,0.053,0.015c0.037,0,0.072-0.019,0.092-0.053
						c0.467-0.804,1.33-1.302,2.255-1.302C337.119,58.125,337.774,58.398,338.267,58.893"/>
				</g>
			</g>
			<path fill="#F16A44" d="M378.307,188.499c0.626-0.399,0.812-1.236,0.414-1.864l-2.932-4.643l-2.27,1.448l2.932,4.643
				C376.85,188.713,377.68,188.898,378.307,188.499"/>
			<path fill="#F16A44" d="M379.764,177.038c0,4.592-3.703,8.313-8.271,8.313c-4.566,0-8.269-3.722-8.269-8.313
				c0-4.591,3.702-8.312,8.269-8.312C376.061,168.726,379.764,172.447,379.764,177.038"/>
			<path fill="#F8FBFC" d="M363.868,175.664c0.096-0.78,0.333-1.544,0.666-2.264c0.343-0.717,0.796-1.385,1.346-1.965
				c1.104-1.159,2.578-1.96,4.155-2.262c0.198-0.032,0.397-0.055,0.596-0.082c0.198-0.032,0.399-0.023,0.6-0.037
				c0.1-0.003,0.199-0.011,0.3-0.009l0.301,0.011c0.2,0.002,0.398,0.029,0.598,0.052c0.794,0.1,1.573,0.324,2.292,0.672
				c0.72,0.342,1.39,0.791,1.962,1.341c0.567,0.553,1.062,1.18,1.432,1.874c-0.888-1.293-2.12-2.315-3.529-2.912
				c-1.403-0.61-2.979-0.756-4.473-0.489c-1.493,0.279-2.893,1.015-3.997,2.075C365.021,172.742,364.232,174.136,363.868,175.664"/>
			<path fill="#93603D" d="M378.176,177.038c0,3.71-2.991,6.718-6.683,6.718c-3.69,0-6.683-3.008-6.683-6.718
				s2.992-6.717,6.683-6.717C375.185,170.321,378.176,173.328,378.176,177.038"/>
			<path fill="#A4704C" d="M365.085,178.945c0.818,2.781,3.377,4.811,6.408,4.811c3.385,0,6.181-2.53,6.621-5.812
				c-0.818-2.78-3.377-4.81-6.408-4.81C368.321,173.135,365.526,175.664,365.085,178.945"/>
			<g opacity="0.5">
				<g>
					<defs>
						<rect id="SVGID_17_" x="365.98" y="172.523" width="11.026" height="10.058"/>
					</defs>
					<clipPath id="SVGID_18_">
						<use xlink:href="#SVGID_17_"  overflow="visible"/>
					</clipPath>
					<path clip-path="url(#SVGID_18_)" fill="#F8FBFC" d="M376.152,174.072c-0.032-0.05-0.098-0.063-0.147-0.033
						c-0.049,0.031-0.063,0.099-0.032,0.147c0.537,0.853,0.821,1.838,0.821,2.852c0,2.938-2.378,5.328-5.301,5.328
						c-0.282,0-0.564-0.021-0.842-0.066c-0.057-0.009-0.112,0.03-0.121,0.09c-0.01,0.058,0.03,0.112,0.088,0.122
						c0.288,0.045,0.582,0.069,0.875,0.069c3.04,0,5.513-2.487,5.513-5.543C377.006,175.984,376.711,174.958,376.152,174.072"/>
					<path clip-path="url(#SVGID_18_)" fill="#F8FBFC" d="M368.39,172.718c0.048-0.034,0.058-0.101,0.022-0.148
						c-0.033-0.049-0.1-0.06-0.147-0.024c-1.431,1.041-2.285,2.721-2.285,4.493c0,1.374,0.504,2.69,1.417,3.71
						c0.021,0.023,0.05,0.035,0.079,0.035c0.025,0,0.051-0.01,0.071-0.027c0.044-0.04,0.047-0.107,0.008-0.151
						c-0.879-0.979-1.362-2.246-1.362-3.566C366.192,175.333,367.014,173.719,368.39,172.718"/>
					<path clip-path="url(#SVGID_18_)" fill="#F8FBFC" d="M371.493,173.598c0.171,0,0.342,0.013,0.509,0.037
						c0.059,0.008,0.112-0.031,0.121-0.089c0.009-0.06-0.031-0.113-0.09-0.122c-0.177-0.026-0.358-0.04-0.54-0.04
						c-2.005,0-3.636,1.64-3.636,3.654c0,0.177,0.013,0.354,0.038,0.529c0.008,0.053,0.053,0.092,0.105,0.092
						c0.005,0,0.01,0,0.015-0.001c0.059-0.01,0.099-0.063,0.09-0.122c-0.023-0.164-0.035-0.331-0.035-0.498
						C368.07,175.141,369.605,173.598,371.493,173.598"/>
					<path clip-path="url(#SVGID_18_)" fill="#F8FBFC" d="M374.152,179.529c0.04-0.042,0.038-0.109-0.005-0.149
						c-0.043-0.041-0.11-0.038-0.15,0.005c-0.646,0.695-1.558,1.094-2.504,1.094c-0.956,0-1.875-0.406-2.521-1.113
						c-0.04-0.044-0.107-0.047-0.15-0.007s-0.046,0.108-0.007,0.15c0.688,0.753,1.664,1.185,2.679,1.185
						C372.498,180.693,373.467,180.269,374.152,179.529"/>
					<path clip-path="url(#SVGID_18_)" fill="#F8FBFC" d="M373.043,173.97c1.155,0.591,1.873,1.767,1.873,3.068
						c0,0.089-0.003,0.177-0.01,0.264c-0.004,0.059,0.04,0.109,0.099,0.114h0.008c0.055,0,0.102-0.042,0.105-0.099
						c0.008-0.092,0.011-0.186,0.011-0.279c0-1.383-0.762-2.632-1.989-3.259c-0.052-0.027-0.116-0.006-0.143,0.046
						C372.97,173.878,372.991,173.942,373.043,173.97"/>
					<path clip-path="url(#SVGID_18_)" fill="#F8FBFC" d="M371.493,179.874c0.998,0,1.901-0.513,2.417-1.373
						c0.03-0.05,0.015-0.115-0.036-0.146c-0.05-0.03-0.115-0.015-0.146,0.036c-0.478,0.796-1.312,1.27-2.235,1.27
						c-0.059,0-0.106,0.048-0.106,0.108C371.387,179.826,371.435,179.874,371.493,179.874"/>
					<path clip-path="url(#SVGID_18_)" fill="#F8FBFC" d="M373.338,175.184c0.042,0.043,0.108,0.043,0.15,0
						c0.041-0.041,0.041-0.108,0-0.15c-0.533-0.535-1.241-0.831-1.995-0.831c-0.999,0-1.933,0.54-2.438,1.408
						c-0.03,0.051-0.013,0.116,0.038,0.146c0.016,0.01,0.035,0.016,0.054,0.016c0.036,0,0.072-0.021,0.092-0.054
						c0.467-0.803,1.33-1.302,2.254-1.302C372.19,174.416,372.845,174.689,373.338,175.184"/>
				</g>
			</g>
			<path fill="#C19F87" d="M204.277,207.117c-0.188-0.449-1.296-0.63-2.376-0.697c-4.11-7.661-14.517-7.929-14.517-7.929
				s-0.831,3.281,3.604,8.722c4.435,5.44,4.406,16.215,4.406,16.215s2.335-1.255,4.694-3.865c1.973-2.182,3.915-5.389,3.089-9.615
				C203.834,208.858,204.479,207.596,204.277,207.117"/>
			<path fill="#F9E1DF" d="M304.537,214.22l-1.04-3.766c-0.263-0.953-1.182-1.566-2.158-1.441l-12.984,1.666
				c-1.169,0.149-1.949,1.286-1.675,2.438l0.97,4.062c0.239,1.003,1.202,1.656,2.217,1.504l13.057-1.962
				C304.099,216.544,304.855,215.371,304.537,214.22"/>
			<path fill="#F9E1DF" d="M328.112,199.25l3.036,2.441c0.769,0.618,1.871,0.575,2.59-0.101l9.559-8.989
				c0.86-0.81,0.831-2.19-0.062-2.963l-3.151-2.724c-0.778-0.672-1.939-0.636-2.674,0.085l-9.444,9.272
				C327.115,197.108,327.184,198.503,328.112,199.25"/>
		</g>
	</g>
</g>
<g id="Layer_2">
</g>
</svg>
