<?xml version="1.0" encoding="utf-8"?>
<!-- Generator: Adobe Illustrator 15.0.0, SVG Export Plug-In . SVG Version: 6.00 Build 0)  -->
<!DOCTYPE svg PUBLIC "-//W3C//DTD SVG 1.1//EN" "http://www.w3.org/Graphics/SVG/1.1/DTD/svg11.dtd">
<svg version="1.1" id="Layer_1" xmlns="http://www.w3.org/2000/svg" xmlns:xlink="http://www.w3.org/1999/xlink" x="0px" y="0px"
	 width="750px" height="500px" viewBox="0 0 750 500" enable-background="new 0 0 750 500" xml:space="preserve">
<g>
	<defs>
		<rect id="SVGID_1_" width="750" height="500"/>
	</defs>
	<clipPath id="SVGID_2_">
		<use xlink:href="#SVGID_1_"  overflow="visible"/>
	</clipPath>
	<g opacity="0.7" clip-path="url(#SVGID_2_)">
		<defs>
			<rect id="SVGID_3_" opacity="0.7" width="750" height="500"/>
		</defs>
		<clipPath id="SVGID_4_">
			<use xlink:href="#SVGID_3_"  overflow="visible"/>
		</clipPath>
		<g opacity="0.5" clip-path="url(#SVGID_4_)">
			<g>
				<defs>
					<rect id="SVGID_5_" x="669.781" y="389.89" width="130.968" height="135.855"/>
				</defs>
				<clipPath id="SVGID_6_">
					<use xlink:href="#SVGID_5_"  overflow="visible"/>
				</clipPath>
				<polygon clip-path="url(#SVGID_6_)" fill="#DDDEE0" points="775.338,389.891 669.781,525.744 800.749,514.994 				"/>
			</g>
		</g>
		<g opacity="0.5" clip-path="url(#SVGID_4_)">
			<g>
				<defs>
					<rect id="SVGID_7_" x="677.6" y="355.682" width="142.697" height="102.137"/>
				</defs>
				<clipPath id="SVGID_8_">
					<use xlink:href="#SVGID_7_"  overflow="visible"/>
				</clipPath>
				<polygon clip-path="url(#SVGID_8_)" fill="#DDDEE0" points="677.601,389.891 805.637,457.818 820.297,355.683 				"/>
			</g>
		</g>
		<g opacity="0.5" clip-path="url(#SVGID_4_)">
			<g>
				<defs>
					<rect id="SVGID_9_" x="605.763" y="442.665" width="142.697" height="102.136"/>
				</defs>
				<clipPath id="SVGID_10_">
					<use xlink:href="#SVGID_9_"  overflow="visible"/>
				</clipPath>
				<polygon clip-path="url(#SVGID_10_)" fill="#DDDEE0" points="605.764,476.873 733.799,544.801 748.46,442.665 				"/>
			</g>
		</g>
		<g opacity="0.5" clip-path="url(#SVGID_4_)">
			<g>
				<defs>
					<rect id="SVGID_11_" x="585.238" y="391.597" width="142.696" height="102.137"/>
				</defs>
				<clipPath id="SVGID_12_">
					<use xlink:href="#SVGID_11_"  overflow="visible"/>
				</clipPath>
				<polygon clip-path="url(#SVGID_12_)" fill="#DDDEE0" points="585.238,425.806 713.274,493.733 727.935,391.598 				"/>
			</g>
		</g>
		<g opacity="0.25" clip-path="url(#SVGID_4_)">
			<g>
				<defs>
					<rect id="SVGID_13_" x="402.903" y="57.016" width="142.696" height="102.135"/>
				</defs>
				<clipPath id="SVGID_14_">
					<use xlink:href="#SVGID_13_"  overflow="visible"/>
				</clipPath>
				<polygon clip-path="url(#SVGID_14_)" fill="#DDDEE0" points="402.903,91.224 530.939,159.151 545.6,57.016 				"/>
			</g>
		</g>
		<g opacity="0.18" clip-path="url(#SVGID_4_)">
			<g>
				<defs>
					<rect id="SVGID_15_" x="599.602" y="335.119" width="122.172" height="139.052"/>
				</defs>
				<clipPath id="SVGID_16_">
					<use xlink:href="#SVGID_15_"  overflow="visible"/>
				</clipPath>
				<polygon clip-path="url(#SVGID_16_)" fill="#DEDFE1" points="671.928,335.119 721.773,467.064 599.602,474.171 				"/>
			</g>
		</g>
		<g opacity="0.18" clip-path="url(#SVGID_4_)">
			<g>
				<defs>
					<rect id="SVGID_17_" x="645.185" y="409.421" width="122.173" height="139.053"/>
				</defs>
				<clipPath id="SVGID_18_">
					<use xlink:href="#SVGID_17_"  overflow="visible"/>
				</clipPath>
				<polygon clip-path="url(#SVGID_18_)" fill="#DEDFE1" points="717.511,409.421 767.356,541.366 645.185,548.474 				"/>
			</g>
		</g>
		<g opacity="0.18" clip-path="url(#SVGID_4_)">
			<g>
				<defs>
					<rect id="SVGID_19_" x="493.854" y="-21.439" width="122.173" height="139.052"/>
				</defs>
				<clipPath id="SVGID_20_">
					<use xlink:href="#SVGID_19_"  overflow="visible"/>
				</clipPath>
				<polygon clip-path="url(#SVGID_20_)" fill="#DEDFE1" points="566.18,-21.439 616.025,110.506 493.854,117.613 				"/>
			</g>
		</g>
		<g opacity="0.18" clip-path="url(#SVGID_4_)">
			<g>
				<defs>
					<rect id="SVGID_21_" x="554.94" y="99.267" width="122.172" height="139.052"/>
				</defs>
				<clipPath id="SVGID_22_">
					<use xlink:href="#SVGID_21_"  overflow="visible"/>
				</clipPath>
				<polygon clip-path="url(#SVGID_22_)" fill="#DEDFE1" points="627.266,99.267 677.111,231.212 554.939,238.318 				"/>
			</g>
		</g>
		<g opacity="0.18" clip-path="url(#SVGID_4_)">
			<g>
				<defs>
					<rect id="SVGID_23_" x="533.507" y="74.423" width="155.94" height="114.05"/>
				</defs>
				<clipPath id="SVGID_24_">
					<use xlink:href="#SVGID_23_"  overflow="visible"/>
				</clipPath>
				<polygon clip-path="url(#SVGID_24_)" fill="#DEDFE1" points="689.446,74.423 606.459,188.472 533.508,90.215 				"/>
			</g>
		</g>
		<g opacity="0.5" clip-path="url(#SVGID_4_)">
			<g>
				<defs>
					<rect id="SVGID_25_" x="634.596" y="327.339" width="131.945" height="79.411"/>
				</defs>
				<clipPath id="SVGID_26_">
					<use xlink:href="#SVGID_25_"  overflow="visible"/>
				</clipPath>
				<polygon clip-path="url(#SVGID_26_)" fill="#F6F6F6" points="634.596,327.339 677.601,406.75 766.541,337.112 				"/>
			</g>
		</g>
		<g opacity="0.5" clip-path="url(#SVGID_4_)">
			<g>
				<defs>
					<rect id="SVGID_27_" x="700.569" y="256.968" width="61.669" height="149.782"/>
				</defs>
				<clipPath id="SVGID_28_">
					<use xlink:href="#SVGID_27_"  overflow="visible"/>
				</clipPath>
				<polygon clip-path="url(#SVGID_28_)" fill="#D8D8DB" points="757.745,256.968 700.568,346.886 762.238,406.75 				"/>
			</g>
		</g>
		<g opacity="0.5" clip-path="url(#SVGID_4_)">
			<g>
				<defs>
					<rect id="SVGID_29_" x="688.351" y="355.682" width="97.51" height="86.01"/>
				</defs>
				<clipPath id="SVGID_30_">
					<use xlink:href="#SVGID_29_"  overflow="visible"/>
				</clipPath>
				<polygon clip-path="url(#SVGID_30_)" fill="#DDDEE0" points="742.823,355.683 688.352,441.691 785.859,441.691 				"/>
			</g>
		</g>
		<g opacity="0.24" clip-path="url(#SVGID_4_)">
			<g>
				<defs>
					<rect id="SVGID_31_" x="619.935" y="293.13" width="160.29" height="108.621"/>
				</defs>
				<clipPath id="SVGID_32_">
					<use xlink:href="#SVGID_31_"  overflow="visible"/>
				</clipPath>
				<polygon clip-path="url(#SVGID_32_)" fill="#DDDEE0" points="619.936,331.858 742.107,401.751 780.225,293.131 				"/>
			</g>
		</g>
		<g opacity="0.05" clip-path="url(#SVGID_4_)">
			<g>
				<defs>
					<rect id="SVGID_33_" x="625.799" y="347.441" width="154.426" height="140.874"/>
				</defs>
				<clipPath id="SVGID_34_">
					<use xlink:href="#SVGID_33_"  overflow="visible"/>
				</clipPath>
				<polygon clip-path="url(#SVGID_34_)" fill="#ECECEC" points="625.8,394.777 780.225,347.44 766.541,488.315 				"/>
			</g>
		</g>
		<g opacity="0.32" clip-path="url(#SVGID_4_)">
			<g>
				<defs>
					<rect id="SVGID_35_" x="358.9" y="240.743" width="151.762" height="159.459"/>
				</defs>
				<clipPath id="SVGID_36_">
					<use xlink:href="#SVGID_35_"  overflow="visible"/>
				</clipPath>
				<polygon clip-path="url(#SVGID_36_)" fill="#ECECEC" points="358.9,240.743 510.661,296.026 414.849,400.202 				"/>
			</g>
		</g>
		<g opacity="0.32" clip-path="url(#SVGID_4_)">
			<g>
				<defs>
					<rect id="SVGID_37_" x="312.327" y="171.705" width="168.684" height="130.84"/>
				</defs>
				<clipPath id="SVGID_38_">
					<use xlink:href="#SVGID_37_"  overflow="visible"/>
				</clipPath>
				<polygon clip-path="url(#SVGID_38_)" fill="#ECECEC" points="481.011,171.705 386.308,302.545 312.328,181.881 				"/>
			</g>
		</g>
		<g opacity="0.12" clip-path="url(#SVGID_4_)">
			<g>
				<defs>
					<rect id="SVGID_39_" x="287.479" y="301.764" width="156.38" height="116.664"/>
				</defs>
				<clipPath id="SVGID_40_">
					<use xlink:href="#SVGID_39_"  overflow="visible"/>
				</clipPath>
				<polygon clip-path="url(#SVGID_40_)" fill="#DDDEE0" points="287.479,301.764 327.551,418.428 443.859,349.035 				"/>
			</g>
		</g>
		<g opacity="0.5" clip-path="url(#SVGID_4_)">
			<g>
				<defs>
					<rect id="SVGID_41_" x="660.008" y="207.283" width="130.968" height="135.854"/>
				</defs>
				<clipPath id="SVGID_42_">
					<use xlink:href="#SVGID_41_"  overflow="visible"/>
				</clipPath>
				<polygon clip-path="url(#SVGID_42_)" fill="#DDDEE0" points="765.563,207.283 660.008,343.137 790.976,332.387 				"/>
			</g>
		</g>
		<g opacity="0.16" clip-path="url(#SVGID_4_)">
			<g>
				<defs>
					<rect id="SVGID_43_" x="343.283" y="279.513" width="130.968" height="135.855"/>
				</defs>
				<clipPath id="SVGID_44_">
					<use xlink:href="#SVGID_43_"  overflow="visible"/>
				</clipPath>
				<polygon clip-path="url(#SVGID_44_)" fill="#DDDEE0" points="448.84,279.514 343.283,415.368 474.251,404.618 				"/>
			</g>
		</g>
		<g opacity="0.5" clip-path="url(#SVGID_4_)">
			<g>
				<defs>
					<rect id="SVGID_45_" x="667.827" y="173.075" width="142.696" height="102.135"/>
				</defs>
				<clipPath id="SVGID_46_">
					<use xlink:href="#SVGID_45_"  overflow="visible"/>
				</clipPath>
				<polygon clip-path="url(#SVGID_46_)" fill="#DDDEE0" points="667.826,207.283 795.862,275.211 810.523,173.075 				"/>
			</g>
		</g>
		<g opacity="0.27" clip-path="url(#SVGID_4_)">
			<g>
				<defs>
					<rect id="SVGID_47_" x="554.587" y="-5.096" width="142.697" height="102.136"/>
				</defs>
				<clipPath id="SVGID_48_">
					<use xlink:href="#SVGID_47_"  overflow="visible"/>
				</clipPath>
				<polygon clip-path="url(#SVGID_48_)" fill="#DDDEE0" points="554.587,29.112 682.623,97.039 697.283,-5.096 				"/>
			</g>
		</g>
		<g opacity="0.5" clip-path="url(#SVGID_4_)">
			<g>
				<defs>
					<rect id="SVGID_49_" x="595.501" y="149.618" width="122.172" height="139.052"/>
				</defs>
				<clipPath id="SVGID_50_">
					<use xlink:href="#SVGID_49_"  overflow="visible"/>
				</clipPath>
				<polygon clip-path="url(#SVGID_50_)" fill="#DEDFE1" points="667.826,149.618 717.673,281.563 595.501,288.67 				"/>
			</g>
		</g>
		<g opacity="0.5" clip-path="url(#SVGID_4_)">
			<g>
				<defs>
					<rect id="SVGID_51_" x="624.822" y="144.731" width="131.945" height="79.412"/>
				</defs>
				<clipPath id="SVGID_52_">
					<use xlink:href="#SVGID_51_"  overflow="visible"/>
				</clipPath>
				<polygon clip-path="url(#SVGID_52_)" fill="#F6F6F6" points="624.822,144.731 667.826,224.143 756.768,154.505 				"/>
			</g>
		</g>
		<g opacity="0.28" clip-path="url(#SVGID_4_)">
			<g>
				<defs>
					<rect id="SVGID_53_" x="706.271" y="63.681" width="61.669" height="149.783"/>
				</defs>
				<clipPath id="SVGID_54_">
					<use xlink:href="#SVGID_53_"  overflow="visible"/>
				</clipPath>
				<polygon clip-path="url(#SVGID_54_)" fill="#D8D8DB" points="763.447,63.681 706.271,153.599 767.94,213.464 				"/>
			</g>
		</g>
		<g opacity="0.28" clip-path="url(#SVGID_4_)">
			<g>
				<defs>
					<rect id="SVGID_55_" x="714.013" y="-59.122" width="61.67" height="149.782"/>
				</defs>
				<clipPath id="SVGID_56_">
					<use xlink:href="#SVGID_55_"  overflow="visible"/>
				</clipPath>
				<polygon clip-path="url(#SVGID_56_)" fill="#D8D8DB" points="771.189,-59.122 714.014,30.796 775.683,90.66 				"/>
			</g>
		</g>
		<g opacity="0.5" clip-path="url(#SVGID_4_)">
			<g>
				<defs>
					<rect id="SVGID_57_" x="678.578" y="173.075" width="97.508" height="86.009"/>
				</defs>
				<clipPath id="SVGID_58_">
					<use xlink:href="#SVGID_57_"  overflow="visible"/>
				</clipPath>
				<polygon clip-path="url(#SVGID_58_)" fill="#DDDEE0" points="733.05,173.075 678.578,259.084 776.086,259.084 				"/>
			</g>
		</g>
		<g opacity="0.28" clip-path="url(#SVGID_4_)">
			<g>
				<defs>
					<rect id="SVGID_59_" x="619.935" y="119.504" width="160.29" height="108.62"/>
				</defs>
				<clipPath id="SVGID_60_">
					<use xlink:href="#SVGID_59_"  overflow="visible"/>
				</clipPath>
				<polygon clip-path="url(#SVGID_60_)" fill="#DDDEE0" points="619.936,158.232 742.107,228.125 780.225,119.503 				"/>
			</g>
		</g>
		<g opacity="0.05" clip-path="url(#SVGID_4_)">
			<g>
				<defs>
					<rect id="SVGID_61_" x="616.026" y="164.833" width="154.425" height="140.875"/>
				</defs>
				<clipPath id="SVGID_62_">
					<use xlink:href="#SVGID_61_"  overflow="visible"/>
				</clipPath>
				<polygon clip-path="url(#SVGID_62_)" fill="#ECECEC" points="616.025,212.17 770.451,164.834 756.768,305.708 				"/>
			</g>
		</g>
		<g opacity="0.05" clip-path="url(#SVGID_4_)">
			<g>
				<defs>
					<rect id="SVGID_63_" x="456.295" y="-29.925" width="154.425" height="140.874"/>
				</defs>
				<clipPath id="SVGID_64_">
					<use xlink:href="#SVGID_63_"  overflow="visible"/>
				</clipPath>
				<polygon clip-path="url(#SVGID_64_)" fill="#ECECEC" points="456.295,17.412 610.72,-29.924 597.037,110.95 				"/>
			</g>
		</g>
		<g opacity="0.24" clip-path="url(#SVGID_4_)">
			<g>
				<defs>
					<rect id="SVGID_65_" x="600.388" y="235.271" width="156.38" height="116.663"/>
				</defs>
				<clipPath id="SVGID_66_">
					<use xlink:href="#SVGID_65_"  overflow="visible"/>
				</clipPath>
				<polygon clip-path="url(#SVGID_66_)" fill="#DDDEE0" points="600.388,235.271 640.46,351.935 756.768,282.542 				"/>
			</g>
		</g>
		<g opacity="0.5" clip-path="url(#SVGID_4_)">
			<g>
				<defs>
					<rect id="SVGID_67_" x="230.463" y="418.7" width="135.855" height="130.968"/>
				</defs>
				<clipPath id="SVGID_68_">
					<use xlink:href="#SVGID_67_"  overflow="visible"/>
				</clipPath>
				<polygon clip-path="url(#SVGID_68_)" fill="#DDDEE0" points="366.318,524.257 230.463,418.7 241.214,549.668 				"/>
			</g>
		</g>
		<g opacity="0.5" clip-path="url(#SVGID_4_)">
			<g>
				<defs>
					<rect id="SVGID_69_" x="298.39" y="426.52" width="102.136" height="142.696"/>
				</defs>
				<clipPath id="SVGID_70_">
					<use xlink:href="#SVGID_69_"  overflow="visible"/>
				</clipPath>
				<polygon clip-path="url(#SVGID_70_)" fill="#DDDEE0" points="366.318,426.52 298.39,554.556 400.525,569.216 				"/>
			</g>
		</g>
		<g opacity="0.5" clip-path="url(#SVGID_4_)">
			<g>
				<defs>
					<rect id="SVGID_71_" x="284.931" y="354.194" width="139.052" height="122.171"/>
				</defs>
				<clipPath id="SVGID_72_">
					<use xlink:href="#SVGID_71_"  overflow="visible"/>
				</clipPath>
				<polygon clip-path="url(#SVGID_72_)" fill="#DEDFE1" points="423.982,426.52 292.038,476.365 284.93,354.193 				"/>
			</g>
		</g>
		<g opacity="0.5" clip-path="url(#SVGID_4_)">
			<g>
				<defs>
					<rect id="SVGID_73_" x="349.458" y="383.515" width="79.412" height="131.945"/>
				</defs>
				<clipPath id="SVGID_74_">
					<use xlink:href="#SVGID_73_"  overflow="visible"/>
				</clipPath>
				<polygon clip-path="url(#SVGID_74_)" fill="#F6F6F6" points="428.87,383.515 349.458,426.52 419.096,515.46 				"/>
			</g>
		</g>
		<g opacity="0.5" clip-path="url(#SVGID_4_)">
			<g>
				<defs>
					<rect id="SVGID_75_" x="349.458" y="449.487" width="149.783" height="61.67"/>
				</defs>
				<clipPath id="SVGID_76_">
					<use xlink:href="#SVGID_75_"  overflow="visible"/>
				</clipPath>
				<polygon clip-path="url(#SVGID_76_)" fill="#D8D8DB" points="499.24,506.664 409.322,449.487 349.458,511.157 				"/>
			</g>
		</g>
		<g opacity="0.5" clip-path="url(#SVGID_4_)">
			<g>
				<defs>
					<rect id="SVGID_77_" x="314.517" y="437.271" width="86.009" height="97.508"/>
				</defs>
				<clipPath id="SVGID_78_">
					<use xlink:href="#SVGID_77_"  overflow="visible"/>
				</clipPath>
				<polygon clip-path="url(#SVGID_78_)" fill="#DDDEE0" points="400.525,491.742 314.518,437.271 314.518,534.778 				"/>
			</g>
		</g>
		<g opacity="0.28" clip-path="url(#SVGID_4_)">
			<g>
				<defs>
					<rect id="SVGID_79_" x="354.457" y="368.854" width="108.621" height="160.29"/>
				</defs>
				<clipPath id="SVGID_80_">
					<use xlink:href="#SVGID_79_"  overflow="visible"/>
				</clipPath>
				<polygon clip-path="url(#SVGID_80_)" fill="#DDDEE0" points="424.35,368.854 354.457,491.026 463.078,529.144 				"/>
			</g>
		</g>
		<g opacity="0.05" clip-path="url(#SVGID_4_)">
			<g>
				<defs>
					<rect id="SVGID_81_" x="267.893" y="374.718" width="140.874" height="154.426"/>
				</defs>
				<clipPath id="SVGID_82_">
					<use xlink:href="#SVGID_81_"  overflow="visible"/>
				</clipPath>
				<polygon clip-path="url(#SVGID_82_)" fill="#ECECEC" points="361.431,374.719 408.768,529.144 267.893,515.46 				"/>
			</g>
		</g>
		<g opacity="0.28" clip-path="url(#SVGID_4_)">
			<g>
				<defs>
					<rect id="SVGID_83_" x="221.666" y="359.08" width="116.664" height="156.38"/>
				</defs>
				<clipPath id="SVGID_84_">
					<use xlink:href="#SVGID_83_"  overflow="visible"/>
				</clipPath>
				<polygon clip-path="url(#SVGID_84_)" fill="#DDDEE0" points="338.33,359.08 221.666,399.152 291.06,515.46 				"/>
			</g>
		</g>
		<g opacity="0.18" clip-path="url(#SVGID_4_)">
			<g>
				<defs>
					<rect id="SVGID_85_" x="413.07" y="408.927" width="135.854" height="130.968"/>
				</defs>
				<clipPath id="SVGID_86_">
					<use xlink:href="#SVGID_85_"  overflow="visible"/>
				</clipPath>
				<polygon clip-path="url(#SVGID_86_)" fill="#DDDEE0" points="548.925,514.482 413.07,408.927 423.82,539.895 				"/>
			</g>
		</g>
		<g opacity="0.5" clip-path="url(#SVGID_4_)">
			<g>
				<defs>
					<rect id="SVGID_87_" x="480.998" y="416.745" width="102.135" height="142.697"/>
				</defs>
				<clipPath id="SVGID_88_">
					<use xlink:href="#SVGID_87_"  overflow="visible"/>
				</clipPath>
				<polygon clip-path="url(#SVGID_88_)" fill="#DDDEE0" points="548.925,416.745 480.998,544.781 583.133,559.442 				"/>
			</g>
		</g>
		<g opacity="0.5" clip-path="url(#SVGID_4_)">
			<g>
				<defs>
					<rect id="SVGID_89_" x="458.825" y="357.614" width="139.052" height="122.172"/>
				</defs>
				<clipPath id="SVGID_90_">
					<use xlink:href="#SVGID_89_"  overflow="visible"/>
				</clipPath>
				<polygon clip-path="url(#SVGID_90_)" fill="#DEDFE1" points="597.877,429.94 465.932,479.786 458.825,357.614 				"/>
			</g>
		</g>
		<g opacity="0.5" clip-path="url(#SVGID_4_)">
			<g>
				<defs>
					<rect id="SVGID_91_" x="532.065" y="373.741" width="79.411" height="131.945"/>
				</defs>
				<clipPath id="SVGID_92_">
					<use xlink:href="#SVGID_91_"  overflow="visible"/>
				</clipPath>
				<polygon clip-path="url(#SVGID_92_)" fill="#F6F6F6" points="611.478,373.741 532.065,416.745 601.703,505.687 				"/>
			</g>
		</g>
		<g opacity="0.5" clip-path="url(#SVGID_4_)">
			<g>
				<defs>
					<rect id="SVGID_93_" x="532.065" y="439.714" width="149.782" height="61.669"/>
				</defs>
				<clipPath id="SVGID_94_">
					<use xlink:href="#SVGID_93_"  overflow="visible"/>
				</clipPath>
				<polygon clip-path="url(#SVGID_94_)" fill="#D8D8DB" points="681.848,496.891 591.93,439.714 532.065,501.383 				"/>
			</g>
		</g>
		<g opacity="0.5" clip-path="url(#SVGID_4_)">
			<g>
				<defs>
					<rect id="SVGID_95_" x="497.124" y="427.497" width="86.009" height="97.508"/>
				</defs>
				<clipPath id="SVGID_96_">
					<use xlink:href="#SVGID_95_"  overflow="visible"/>
				</clipPath>
				<polygon clip-path="url(#SVGID_96_)" fill="#DDDEE0" points="583.133,481.969 497.124,427.497 497.124,525.005 				"/>
			</g>
		</g>
		<g opacity="0.24" clip-path="url(#SVGID_4_)">
			<g>
				<defs>
					<rect id="SVGID_97_" x="537.064" y="359.08" width="108.62" height="160.29"/>
				</defs>
				<clipPath id="SVGID_98_">
					<use xlink:href="#SVGID_97_"  overflow="visible"/>
				</clipPath>
				<polygon clip-path="url(#SVGID_98_)" fill="#DDDEE0" points="606.957,359.08 537.064,481.252 645.686,519.37 				"/>
			</g>
		</g>
		<g opacity="0.05" clip-path="url(#SVGID_4_)">
			<g>
				<defs>
					<rect id="SVGID_99_" x="450.5" y="364.945" width="140.875" height="154.425"/>
				</defs>
				<clipPath id="SVGID_100_">
					<use xlink:href="#SVGID_99_"  overflow="visible"/>
				</clipPath>
				<polygon clip-path="url(#SVGID_100_)" fill="#ECECEC" points="544.038,364.944 591.375,519.37 450.501,505.687 				"/>
			</g>
		</g>
		<g opacity="0.24" clip-path="url(#SVGID_4_)">
			<g>
				<defs>
					<rect id="SVGID_101_" x="404.274" y="349.307" width="116.663" height="156.38"/>
				</defs>
				<clipPath id="SVGID_102_">
					<use xlink:href="#SVGID_101_"  overflow="visible"/>
				</clipPath>
				<polygon clip-path="url(#SVGID_102_)" fill="#DDDEE0" points="520.938,349.307 404.273,389.379 473.666,505.687 				"/>
			</g>
		</g>
		<g opacity="0.24" clip-path="url(#SVGID_4_)">
			<g>
				<defs>
					<rect id="SVGID_103_" x="647.939" y="14.55" width="116.664" height="156.38"/>
				</defs>
				<clipPath id="SVGID_104_">
					<use xlink:href="#SVGID_103_"  overflow="visible"/>
				</clipPath>
				<polygon clip-path="url(#SVGID_104_)" fill="#DDDEE0" points="764.603,14.55 647.938,54.622 717.331,170.93 				"/>
			</g>
		</g>
		<g opacity="0.24" clip-path="url(#SVGID_4_)">
			<g>
				<defs>
					<rect id="SVGID_105_" x="408.554" y="200.474" width="108.621" height="160.289"/>
				</defs>
				<clipPath id="SVGID_106_">
					<use xlink:href="#SVGID_105_"  overflow="visible"/>
				</clipPath>
				<polygon clip-path="url(#SVGID_106_)" fill="#DDDEE0" points="478.446,200.474 408.554,322.646 517.175,360.763 				"/>
			</g>
		</g>
		<g opacity="0.28" clip-path="url(#SVGID_4_)">
			<g>
				<defs>
					<rect id="SVGID_107_" x="467.168" y="240.546" width="135.854" height="130.968"/>
				</defs>
				<clipPath id="SVGID_108_">
					<use xlink:href="#SVGID_107_"  overflow="visible"/>
				</clipPath>
				<polygon clip-path="url(#SVGID_108_)" fill="#DDDEE0" points="603.022,346.103 467.169,240.545 477.919,371.514 				"/>
			</g>
		</g>
		<g opacity="0.18" clip-path="url(#SVGID_4_)">
			<g>
				<defs>
					<rect id="SVGID_109_" x="535.095" y="248.365" width="102.137" height="142.695"/>
				</defs>
				<clipPath id="SVGID_110_">
					<use xlink:href="#SVGID_109_"  overflow="visible"/>
				</clipPath>
				<polygon clip-path="url(#SVGID_110_)" fill="#DDDEE0" points="603.022,248.365 535.095,376.4 637.23,391.062 				"/>
			</g>
		</g>
		<g opacity="0.5" clip-path="url(#SVGID_4_)">
			<g>
				<defs>
					<rect id="SVGID_111_" x="521.636" y="176.039" width="139.052" height="122.172"/>
				</defs>
				<clipPath id="SVGID_112_">
					<use xlink:href="#SVGID_111_"  overflow="visible"/>
				</clipPath>
				<polygon clip-path="url(#SVGID_112_)" fill="#DEDFE1" points="660.688,248.365 528.742,298.211 521.636,176.039 				"/>
			</g>
		</g>
		<g opacity="0.5" clip-path="url(#SVGID_4_)">
			<g>
				<defs>
					<rect id="SVGID_113_" x="586.163" y="205.36" width="79.411" height="131.946"/>
				</defs>
				<clipPath id="SVGID_114_">
					<use xlink:href="#SVGID_113_"  overflow="visible"/>
				</clipPath>
				<polygon clip-path="url(#SVGID_114_)" fill="#F6F6F6" points="665.574,205.36 586.163,248.364 655.801,337.306 				"/>
			</g>
		</g>
		<g opacity="0.5" clip-path="url(#SVGID_4_)">
			<g>
				<defs>
					<rect id="SVGID_115_" x="551.222" y="259.116" width="86.01" height="97.508"/>
				</defs>
				<clipPath id="SVGID_116_">
					<use xlink:href="#SVGID_115_"  overflow="visible"/>
				</clipPath>
				<polygon clip-path="url(#SVGID_116_)" fill="#DDDEE0" points="637.23,313.588 551.222,259.116 551.222,356.624 				"/>
			</g>
		</g>
		<g opacity="0.05" clip-path="url(#SVGID_4_)">
			<g>
				<defs>
					<rect id="SVGID_117_" x="504.598" y="196.564" width="140.874" height="154.425"/>
				</defs>
				<clipPath id="SVGID_118_">
					<use xlink:href="#SVGID_117_"  overflow="visible"/>
				</clipPath>
				<polygon clip-path="url(#SVGID_118_)" fill="#ECECEC" points="598.136,196.564 645.472,350.989 504.598,337.306 				"/>
			</g>
		</g>
		<g opacity="0.24" clip-path="url(#SVGID_4_)">
			<g>
				<defs>
					<rect id="SVGID_119_" x="458.371" y="180.926" width="116.664" height="156.38"/>
				</defs>
				<clipPath id="SVGID_120_">
					<use xlink:href="#SVGID_119_"  overflow="visible"/>
				</clipPath>
				<polygon clip-path="url(#SVGID_120_)" fill="#DDDEE0" points="575.035,180.926 458.371,220.999 527.764,337.306 				"/>
			</g>
		</g>
		<g opacity="0.24" clip-path="url(#SVGID_4_)">
			<g>
				<defs>
					<rect id="SVGID_121_" x="452.33" y="107.247" width="116.663" height="156.38"/>
				</defs>
				<clipPath id="SVGID_122_">
					<use xlink:href="#SVGID_121_"  overflow="visible"/>
				</clipPath>
				<polygon clip-path="url(#SVGID_122_)" fill="#DDDEE0" points="568.993,107.247 452.33,147.319 521.724,263.627 				"/>
			</g>
		</g>
		<g opacity="0.2" clip-path="url(#SVGID_4_)">
			<g>
				<defs>
					<rect id="SVGID_123_" x="466.662" y="-37.925" width="345.654" height="386.025"/>
				</defs>
				<clipPath id="SVGID_124_">
					<use xlink:href="#SVGID_123_"  overflow="visible"/>
				</clipPath>
				<polygon clip-path="url(#SVGID_124_)" fill="none" stroke="#585857" stroke-width="0.5" stroke-miterlimit="10" points="
					575.035,-18.986 672.552,86.007 701.552,-11.771 774.342,45.972 763.446,130.25 703.012,63.681 764.603,0 637.23,36.081 
					591.375,-37.221 575.035,69.312 497.124,21.421 481.011,-29.924 537.064,-37.221 528.351,164.833 678.578,173.813 
					600.389,125.021 586.163,235.271 693.238,250 688.352,347.44 735.266,298.211 810.523,279.514 645.185,273.776 656.587,196.563 
					767.94,213.464 714.015,231.787 627.795,159.152 619.936,83.551 467.168,110.95 521.636,22.397 				"/>
			</g>
		</g>
		<g opacity="0.3" clip-path="url(#SVGID_4_)">
			<g>
				<defs>
					<rect id="SVGID_125_" x="350.155" y="47.817" width="470.456" height="487.414"/>
				</defs>
				<clipPath id="SVGID_126_">
					<use xlink:href="#SVGID_125_"  overflow="visible"/>
				</clipPath>
				<polyline clip-path="url(#SVGID_126_)" fill="none" stroke="#585857" stroke-width="0.5" stroke-miterlimit="10" points="
					794.885,83.55 645.472,131.447 638.846,97.039 744.848,168.792 703.012,48.087 619.936,57.016 517.175,213.464 480.998,144.731 
					647.667,256.968 606.957,331.858 688.352,427.497 717.673,368.854 799.104,360.763 785.859,415.279 669.781,364.944 
					721.773,276.434 645.185,323.748 532.065,273.776 545.6,423.014 660.008,426.52 452.33,359.45 568.993,354.193 577.029,474.171 
					504.598,477.064 610.72,441.691 625.936,484.484 594.227,525.745 499.962,418.7 591.375,367.044 497.124,298.211 
					461.302,400.202 464.654,457.818 521.636,520.026 397.725,442.665 350.733,529.144 467.168,475.829 436.327,418.428 
					545.6,439.714 669.781,515.46 807.812,442.665 820.297,534.778 665.574,451.931 731.404,307.87 484.995,254.397 
					562.313,224.142 619.936,184.438 693.238,250 780.225,188.472 				"/>
			</g>
		</g>
	</g>
</g>
</svg>
